<svg width="64" height="64" viewBox="0 0 64 64" fill="none" xmlns="http://www.w3.org/2000/svg">
<path d="M2.07923 4.30479C1.11707 2.31274 2.56839 0 4.78063 0H40.8396C43.0576 0 44.5086 2.32356 43.5353 4.31651L41.0082 9.49111C40.5051 10.5212 39.4589 11.1746 38.3125 11.1746H22.4744C20.1843 11.1746 18.7387 13.637 19.8548 15.6367L20.475 16.7478C21.0049 17.6973 22.0072 18.2857 23.0946 18.2857H32.4055C34.6235 18.2857 36.0745 20.6093 35.1012 22.6022L34.0625 24.7292C33.5594 25.7593 32.5132 26.4127 31.3668 26.4127H29.1138C26.8959 26.4127 25.4448 28.7363 26.4181 30.7292L28.0576 34.0861C28.5049 35.0021 28.4565 36.0826 27.9291 36.9549L25.1881 41.4881C23.956 43.5258 20.9551 43.3848 19.9195 41.2407L2.07923 4.30479Z" fill="url(#paint0_linear_89_653)"/>
<path d="M52.2546 1.65279C52.7639 0.639502 53.801 0 54.9351 0H59.1962C61.4142 0 62.8652 2.32357 61.8919 4.31651L35.3828 58.5972C34.2969 60.8207 31.1377 60.8475 30.0142 58.6428L27.4801 53.6702C27.0467 52.8197 27.0439 51.8138 27.4725 50.9609L52.2546 1.65279Z" fill="url(#paint1_linear_89_653)"/>
<defs>
<linearGradient id="paint0_linear_89_653" x1="11.7153" y1="30.7134" x2="35.885" y2="30.1594" gradientUnits="userSpaceOnUse">
<stop stop-color="#21D4FD"/>
<stop offset="1" stop-color="#2BFF88"/>
</linearGradient>
<linearGradient id="paint1_linear_89_653" x1="36.3413" y1="42.5263" x2="56.0516" y2="42.2603" gradientUnits="userSpaceOnUse">
<stop stop-color="#21D4FD"/>
<stop offset="1" stop-color="#2BFF88"/>
</linearGradient>
</defs>
</svg>
